<svg xmlns="http://www.w3.org/2000/svg" version="1.1" xmlns:xlink="http://www.w3.org/1999/xlink" xmlns:svgjs="http://svgjs.com/svgjs" width="1440" height="1047" preserveAspectRatio="none" viewBox="0 0 1440 1047">
    <g mask="url(&quot;#SvgjsMask1048&quot;)" fill="none">
        <path d="M1116.5 185.65 a280.86 280.86 0 1 0 561.72 0 a280.86 280.86 0 1 0 -561.72 0z" fill="rgba(232, 164, 164, 0.57)" class="triangle-float1"></path>
        <path d="M1270.706,948.084C1324.281,946.299,1371.372,913.289,1396.142,865.75C1419.151,821.591,1413.6,768.213,1386.038,726.743C1361.201,689.374,1315.575,677.28,1270.706,677.02C1225.254,676.757,1179.413,688.377,1153.037,725.394C1121.73,769.331,1104.702,826.92,1129.907,874.62C1156.414,924.785,1213.999,949.973,1270.706,948.084" fill="rgba(232, 164, 164, 0.57)" class="triangle-float1"></path>
        <path d="M482.054,656.138C569.108,661.332,660.169,634.522,706.77,560.808C756.236,482.562,757.727,378.555,706.126,301.7C659.032,231.558,566.511,223.931,482.054,226.114C402.608,228.168,317.488,244.291,277.187,312.788C236.457,382.015,258.28,467.528,299.435,536.503C339.4,603.483,404.195,651.492,482.054,656.138" fill="rgba(232, 164, 164, 0.57)" class="triangle-float2"></path>
        <path d="M813.666,359.733C885.297,358.551,964.657,353.122,1002.513,292.299C1041.918,228.986,1023.28,148.35,985.1,84.291C947.957,21.971,886.184,-26.67,813.666,-24.553C744.038,-22.52,695.379,34.578,658.736,93.819C619.31,157.559,575.98,233.954,613.71,298.712C651.31,363.247,738.986,360.965,813.666,359.733" fill="rgba(232, 164, 164, 0.57)" class="triangle-float2"></path>
        <path d="M38.64 1013.28 a267.67 267.67 0 1 0 535.34 0 a267.67 267.67 0 1 0 -535.34 0z" fill="rgba(232, 164, 164, 0.57)" class="triangle-float3"></path>
        <path d="M1151.206,1465.475C1257.17,1465.292,1346.358,1388.365,1392.473,1292.962C1433.206,1208.692,1405.48,1114.92,1360.265,1032.967C1312.955,947.217,1249.082,859.051,1151.206,855.66C1049.093,852.122,964.967,928.18,915.455,1017.556C867.615,1103.914,862.509,1206.437,908.49,1293.799C957.959,1387.788,1044.993,1465.659,1151.206,1465.475" fill="rgba(232, 164, 164, 0.57)" class="triangle-float2"></path>
    </g>
    <defs>
        <mask id="SvgjsMask1048">
            <rect width="1440" height="1047" fill="#ffffff"></rect>
        </mask>
        <style>
            @keyframes float1 {
                0%{transform: translate(0, 0)}
                50%{transform: translate(-10px, 0)}
                100%{transform: translate(0, 0)}
            }

            .triangle-float1 {
                animation: float1 5s infinite;
            }

            @keyframes float2 {
                0%{transform: translate(0, 0)}
                50%{transform: translate(-5px, -5px)}
                100%{transform: translate(0, 0)}
            }

            .triangle-float2 {
                animation: float2 4s infinite;
            }

            @keyframes float3 {
                0%{transform: translate(0, 0)}
                50%{transform: translate(0, -10px)}
                100%{transform: translate(0, 0)}
            }

            .triangle-float3 {
                animation: float3 6s infinite;
            }
        </style>
    </defs>
</svg>