<svg width="400" height="61" viewBox="0 0 400 61" fill="none" xmlns="http://www.w3.org/2000/svg">
<rect x="0.000244141" y="0.493652" width="399.688" height="60.4729" rx="25" fill="#F4F4F4" fill-opacity="0.6"/>
<rect x="15.1185" y="11.8323" width="39.6854" height="39.6854" rx="19.8427" fill="#F4F4F4"/>
<rect x="69.9221" y="41.1239" width="152.127" height="6.61423" rx="3.30711" fill="#F4F4F4"/>
<path d="M69.9221 27.2664C69.9221 25.5264 71.3327 24.1158 73.0727 24.1158H123.986C125.726 24.1158 127.137 25.5264 127.137 27.2664C127.137 29.0065 125.726 30.417 123.986 30.417H73.0727C71.3327 30.417 69.9221 29.0065 69.9221 27.2664Z" fill="#F4F4F4"/>
<path d="M278.319 30.417C278.319 28.677 279.73 27.2664 281.47 27.2664H306.927H332.384C334.124 27.2664 335.534 28.677 335.534 30.417C335.534 32.1571 334.124 33.5676 332.384 33.5676H281.47C279.73 33.5676 278.319 32.1571 278.319 30.417Z" fill="#F4F4F4"/>
<rect x="69.9221" y="8.05273" width="92.5992" height="8.50401" rx="4.252" fill="#F4F4F4"/>
</svg>
