<svg width="112" height="40" viewBox="0 0 112 40" fill="none" xmlns="http://www.w3.org/2000/svg">
    <path fill-rule="evenodd" clip-rule="evenodd" d="M0 0H39.9995V9.99988H0V0ZM19.9998 19.9998H29.9996C29.9996 31.0453 21.0454 39.9995 9.99988 39.9995H0V29.9996H9.99988C15.5227 29.9996 19.9998 25.5225 19.9998 19.9998Z" fill="#ECA69B"/>
    <path fill-rule="evenodd" clip-rule="evenodd" d="M49.9999 0H40V39.9995H49.9999V29.9996H69.9996V39.9995H79.9995V29.9996H69.9996V19.9998H79.9995V0H69.9996V19.9998H49.9999V0Z" fill="black"/>
    <path fill-rule="evenodd" clip-rule="evenodd" d="M112 0H72V9.99988H91.9998V19.9998H102V9.99988H112V0ZM91.9998 29.9996H102V39.9995H91.9998V29.9996Z" fill="black"/>
</svg>
